<?xml version="1.0" standalone="no"?>
<!DOCTYPE svg PUBLIC "-//W3C//DTD SVG 20010904//EN"
 "http://www.w3.org/TR/2001/REC-SVG-20010904/DTD/svg10.dtd">
<svg version="1.0" xmlns="http://www.w3.org/2000/svg"
 width="736.000000pt" height="1593.000000pt" viewBox="0 0 736.000000 1593.000000"
 preserveAspectRatio="xMidYMid meet">
<metadata>
Created by potrace 1.16, written by Peter Selinger 2001-2019
</metadata>
<g transform="translate(0.000000,1593.000000) scale(0.100000,-0.100000)"
fill="#000000" stroke="none">
<path d="M0 13120 c0 -2488 2 -2809 15 -2804 8 4 15 1 15 -5 0 -6 -7 -11 -15
-11 -13 0 -15 -584 -15 -5150 l0 -5150 3680 0 3680 0 0 4494 c0 3576 -3 4495
-13 4499 -9 4 -9 6 0 6 10 1 13 709 13 3466 l0 3465 -3680 0 -3680 0 0 -2810z"/>
</g>
</svg>
